<?xml version="1.0" encoding="iso-8859-1"?>
<!-- Generator: Adobe Illustrator 19.0.0, SVG Export Plug-In . SVG Version: 6.00 Build 0)  -->
<svg version="1.1" id="Capa_1" xmlns="http://www.w3.org/2000/svg" xmlns:xlink="http://www.w3.org/1999/xlink" x="0px" y="0px"
	 viewBox="0 0 512.142 512.142" style="enable-background:new 0 0 512.142 512.142;" xml:space="preserve">
<g>
	<path style="fill:#4CAF50;" d="M74.737,170.808c-17.673,0-32,14.327-32,32v149.333c0,17.673,14.327,32,32,32s32-14.327,32-32
		V202.808C106.737,185.135,92.411,170.808,74.737,170.808z"/>
	<path style="fill:#4CAF50;" d="M437.404,170.808c-17.673,0-32,14.327-32,32v149.333c0,17.673,14.327,32,32,32s32-14.327,32-32
		V202.808C469.404,185.135,455.077,170.808,437.404,170.808z"/>
	<path style="fill:#4CAF50;" d="M373.404,170.808H138.737c-5.891,0-10.667,4.776-10.667,10.667v170.667
		c-0.005,25.348,17.831,47.197,42.667,52.267v75.733c0,17.673,14.327,32,32,32s32-14.327,32-32v-74.667h42.667v74.667
		c0,17.673,14.327,32,32,32c17.673,0,32-14.327,32-32v-75.733c24.836-5.07,42.672-26.919,42.667-52.267V181.475
		C384.071,175.584,379.295,170.808,373.404,170.808z"/>
	<path style="fill:#4CAF50;" d="M333.617,44.344l26.005-25.984c4.237-4.093,4.354-10.845,0.262-15.083
		c-4.093-4.237-10.845-4.354-15.083-0.262c-0.089,0.086-0.176,0.173-0.262,0.262l-30.293,30.293
		c-37.102-16.117-79.229-16.117-116.331,0L167.623,3.256c-4.237-4.093-10.99-3.975-15.083,0.262c-3.992,4.134-3.992,10.687,0,14.82
		l25.984,26.005c-31.677,20.96-50.649,56.481-50.453,94.464c0,5.891,4.776,10.667,10.667,10.667h234.667
		c5.891,0,10.667-4.776,10.667-10.667C384.266,100.825,365.295,65.304,333.617,44.344z"/>
</g>
<g>
	<circle style="fill:#FAFAFA;" cx="202.737" cy="96.142" r="10.667"/>
	<circle style="fill:#FAFAFA;" cx="309.404" cy="96.142" r="10.667"/>
</g>
<path d="M74.737,384.142c-17.673,0-32-14.327-32-32V202.808c0-17.673,14.327-32,32-32s32,14.327,32,32v149.333
	C106.737,369.815,92.411,384.142,74.737,384.142z M74.737,192.142c-5.891,0-10.667,4.776-10.667,10.667v149.333
	c0,5.891,4.776,10.667,10.667,10.667s10.667-4.776,10.667-10.667V202.808C85.404,196.917,80.628,192.142,74.737,192.142z"/>
<path d="M437.404,384.142c-17.673,0-32-14.327-32-32V202.808c0-17.673,14.327-32,32-32s32,14.327,32,32v149.333
	C469.404,369.815,455.077,384.142,437.404,384.142z M437.404,192.142c-5.891,0-10.667,4.776-10.667,10.667v149.333
	c0,5.891,4.776,10.667,10.667,10.667c5.891,0,10.667-4.776,10.667-10.667V202.808C448.071,196.917,443.295,192.142,437.404,192.142z
	"/>
<path d="M309.404,512.142c-17.673,0-32-14.327-32-32v-74.667h-42.667v74.667c0,17.673-14.327,32-32,32s-32-14.327-32-32v-75.733
	c-24.836-5.07-42.672-26.919-42.667-52.267V181.475c0-5.891,4.776-10.667,10.667-10.667h234.667c5.891,0,10.667,4.776,10.667,10.667
	v170.667c0.005,25.348-17.831,47.197-42.667,52.267v75.733C341.404,497.815,327.077,512.142,309.404,512.142z M224.071,384.142h64
	c5.891,0,10.667,4.776,10.667,10.667v85.333c0,5.891,4.776,10.667,10.667,10.667c5.891,0,10.667-4.776,10.667-10.667v-85.333
	c0-5.891,4.776-10.667,10.667-10.667c17.673,0,32-14.327,32-32v-160H149.404v160c0,17.673,14.327,32,32,32
	c5.891,0,10.667,4.776,10.667,10.667v85.333c0,5.891,4.776,10.667,10.667,10.667c5.891,0,10.667-4.776,10.667-10.667v-85.333
	C213.404,388.917,218.18,384.142,224.071,384.142z"/>
<path d="M373.404,149.475H138.737c-5.891,0-10.667-4.776-10.667-10.667c0-66.901,55.04-117.333,128-117.333s128,50.432,128,117.333
	C384.071,144.699,379.295,149.475,373.404,149.475z M150.001,128.142h212.181c-5.355-50.048-48.341-85.333-106.112-85.333
	C203.916,39.382,157.824,76.463,150.001,128.142z"/>
<path d="M192.071,53.475c-2.831,0.005-5.548-1.115-7.552-3.115l-32-32c-4.171-4.171-4.171-10.933,0-15.104
	c4.171-4.171,10.933-4.171,15.104,0l32,32c4.171,4.16,4.179,10.914,0.019,15.085C197.636,52.352,194.911,53.48,192.071,53.475z"/>
<path d="M320.071,53.475c-5.891,0.011-10.675-4.757-10.686-10.648c-0.005-2.84,1.123-5.565,3.134-7.571l32-32
	c4.093-4.237,10.845-4.354,15.083-0.262c4.237,4.093,4.354,10.845,0.262,15.083c-0.086,0.089-0.173,0.176-0.262,0.262l-32,32
	C325.606,52.341,322.897,53.469,320.071,53.475z"/>
<circle cx="202.737" cy="96.142" r="10.667"/>
<circle cx="309.404" cy="96.142" r="10.667"/>
<g>
</g>
<g>
</g>
<g>
</g>
<g>
</g>
<g>
</g>
<g>
</g>
<g>
</g>
<g>
</g>
<g>
</g>
<g>
</g>
<g>
</g>
<g>
</g>
<g>
</g>
<g>
</g>
<g>
</g>
</svg>
